<?xml version="1.0" encoding="UTF-8"?>
<svg version="1.1" xmlns="http://www.w3.org/2000/svg" width="512" height="512">
<path d="M0 0 C9.83418081 7.74441739 16.34454436 18.59263483 18.5 30.96875 C18.78296035 34.98196639 18.77863003 38.98273393 18.76742554 43.00468445 C18.77195665 44.20291189 18.77648776 45.40113932 18.78115618 46.63567668 C18.79159367 49.94463899 18.79313166 53.25338319 18.79076743 56.56234634 C18.79035799 60.13782726 18.80141057 63.71327619 18.81088257 67.28874207 C18.8274666 74.28779804 18.83299095 81.28682032 18.83410732 88.2858943 C18.83505912 93.97829345 18.83917597 99.67068152 18.84550858 105.36307716 C18.86311461 121.51919733 18.87234855 137.67529097 18.87084763 153.8314208 C18.87076772 154.70165887 18.8706878 155.57189694 18.87060547 156.46850586 C18.87052371 157.33981255 18.87044195 158.21111925 18.87035771 159.10882918 C18.86954519 173.22247791 18.88867582 187.33601983 18.9168822 201.44963767 C18.94564791 215.95819053 18.95942044 230.46669135 18.95769465 244.97527343 C18.95703198 253.11395487 18.9624702 261.25252436 18.98405075 269.39118004 C19.00231124 276.32192179 19.00657018 283.25250083 18.9930319 290.18325629 C18.9865264 293.71507605 18.98629648 297.24658411 19.0037384 300.77837372 C19.02250617 304.61835707 19.00985137 308.45789148 18.99447632 312.29789734 C19.00476344 313.39851224 19.01505057 314.49912714 19.02564943 315.63309401 C18.90688251 329.1278813 14.5514815 341.15787818 5.46875 351.21875 C-4.87255507 361.11043311 -17.21760967 365.37845338 -31.29272461 365.33764648 C-46.12256535 364.91295423 -57.44165139 357.94776854 -68.08203125 348.1171875 C-71.3229472 345.23753682 -74.75972508 342.64846767 -78.21264648 340.02978516 C-82.69426849 336.61760459 -87.0768362 333.09639792 -91.4375 329.53125 C-96.41995991 325.45944105 -101.42757688 321.42797953 -106.5 317.46875 C-111.54853935 313.52689774 -116.53754051 309.51840238 -121.5 305.46875 C-131.52103742 297.26147585 -131.52103742 297.26147585 -141.78686523 289.36547852 C-143.5 287.96875 -143.5 287.96875 -145.15258789 286.11694336 C-151.12449371 280.09618135 -157.24687768 280.24986948 -165.26121521 280.18377686 C-168.19568113 280.19350959 -171.12842003 280.23363374 -174.0625 280.28125 C-195.99864454 280.52101929 -214.59127068 279.07955049 -231.2890625 263.171875 C-232.01867187 262.44484375 -232.74828125 261.7178125 -233.5 260.96875 C-234.06460938 260.42734375 -234.62921875 259.8859375 -235.2109375 259.328125 C-245.05178866 249.01866188 -248.80359624 235.20494427 -248.79052734 221.3527832 C-248.79724457 220.31911118 -248.80396179 219.28543915 -248.81088257 218.22044373 C-248.82980198 214.82008997 -248.83378396 211.4199343 -248.8359375 208.01953125 C-248.84237043 205.64072083 -248.84909916 203.2619112 -248.85610962 200.88310242 C-248.86806785 195.90097216 -248.87179201 190.91891117 -248.87060547 185.93676758 C-248.87040255 179.57976518 -248.89768343 173.2232112 -248.93214989 166.86631489 C-248.9544843 161.95295711 -248.95844097 157.03970605 -248.95738602 152.12630272 C-248.95973294 149.78414556 -248.96850471 147.44198505 -248.98405075 145.09987831 C-249.10626557 124.7829139 -246.95569044 108.71905332 -232.4375 93.21875 C-219.30566657 80.8204386 -203.78532442 75.54688843 -185.875 75.81640625 C-184.94983078 75.82783157 -184.02466156 75.8392569 -183.07145691 75.85102844 C-179.25420831 75.91218868 -175.44119531 75.99006071 -171.62695312 76.15698242 C-159.12454206 76.65729222 -151.12841095 75.68849802 -141.68408203 67.0224762 C-140.51606489 65.89640503 -139.35760142 64.76032578 -138.2097168 63.61373901 C-135.48910431 60.99612558 -132.50467684 58.74698503 -129.5 56.46875 C-124.44800593 52.53148386 -119.46225041 48.51840263 -114.5 44.46875 C-108.97740765 39.96180682 -103.41031228 35.52090545 -97.79125977 31.13500977 C-93.29335471 27.6149932 -88.86038278 24.01989539 -84.4375 20.40625 C-77.55563294 14.79198671 -70.58552505 9.3240887 -63.5 3.96875 C-62.54351562 3.22496094 -61.58703125 2.48117188 -60.6015625 1.71484375 C-42.27064696 -12.22589454 -19.21217998 -13.18044905 0 0 Z M-49.125 35.09375 C-50.53306411 36.253564 -51.94193252 37.41240216 -53.3515625 38.5703125 C-54.04926758 39.14426758 -54.74697266 39.71822266 -55.46582031 40.30957031 C-58.44408511 42.73879349 -61.46835014 45.10673117 -64.5 47.46875 C-69.54891468 51.41010499 -74.53763761 55.41900598 -79.5 59.46875 C-85.02259235 63.97569318 -90.58968772 68.41659455 -96.20874023 72.80249023 C-101.32456897 76.80608784 -106.36444906 80.89998575 -111.38085938 85.02734375 C-111.98865234 85.52492187 -112.59644531 86.0225 -113.22265625 86.53515625 C-113.8290585 87.04490399 -114.43546076 87.55465174 -115.06023884 88.07984638 C-117.5 89.96875 -117.5 89.96875 -120.70064831 91.95545483 C-125.57466001 95.06801182 -129.69275566 97.75749214 -131.72811317 103.33288002 C-132.20904338 107.32193888 -132.29511412 111.21082907 -132.22973633 115.21801758 C-132.25230669 116.73541436 -132.28033873 118.25273812 -132.31336975 119.76994324 C-132.38506491 123.86638203 -132.37492334 127.95870667 -132.34502625 132.05551744 C-132.32759067 135.48730646 -132.35082206 138.91834301 -132.3738758 142.3500616 C-132.42771991 150.45386779 -132.41524985 158.5556818 -132.35961914 166.65942383 C-132.30345176 174.99106721 -132.3526228 183.31728706 -132.45511419 191.6483677 C-132.54003749 198.82704181 -132.56212743 206.00404067 -132.53413028 213.18316191 C-132.5178642 217.45975873 -132.52376957 221.73314869 -132.58902931 226.00934792 C-133.68817901 244.51163675 -133.68817901 244.51163675 -127.04867554 260.82846069 C-123.83278193 263.76275007 -120.40643234 265.91349941 -116.53166771 267.87129784 C-113.20671835 269.66734591 -110.40220619 272.06925929 -107.5 274.46875 C-106.35651091 275.36757372 -105.21093972 276.26376044 -104.0625 277.15625 C-99.48080807 280.75615081 -94.97506737 284.44886744 -90.4609375 288.1328125 C-86.17548382 291.62405083 -81.85670547 295.06693888 -77.5 298.46875 C-72.45152494 302.41070998 -67.46286593 306.41957963 -62.5 310.46875 C-57.3302057 314.67846643 -52.15568466 318.88157769 -46.9375 323.03125 C-46.11668945 323.69253906 -46.11668945 323.69253906 -45.27929688 324.3671875 C-39.89271275 328.62634704 -34.62908955 332.77689298 -27.484375 332.34765625 C-22.37600044 331.37223827 -19.45507561 329.29203342 -16.42920685 325.09960938 C-13.62658574 320.05394912 -13.94577095 314.95942574 -13.99206543 309.31640625 C-13.98270549 307.56299927 -13.98270549 307.56299927 -13.97315645 305.77416992 C-13.95999111 302.54244308 -13.96468965 299.31132038 -13.97710133 296.07960892 C-13.98616699 292.58941738 -13.97217461 289.09930631 -13.96118164 285.60913086 C-13.94340792 278.77700225 -13.94723123 271.94504955 -13.9588322 265.11291409 C-13.96787079 259.55963639 -13.96908869 254.00640794 -13.96473694 248.453125 C-13.96412401 247.66234118 -13.96351107 246.87155735 -13.96287957 246.05681038 C-13.96160065 244.45027922 -13.9603038 242.84374808 -13.9589892 241.23721695 C-13.94758677 226.17760883 -13.96069181 211.11809815 -13.98219067 196.05850601 C-14.00006136 183.14051772 -13.99695716 170.2226732 -13.97851562 157.3046875 C-13.95710295 142.29846835 -13.94868537 127.29233458 -13.96096468 112.28610229 C-13.96223886 110.68552654 -13.96349634 109.08495078 -13.96473694 107.484375 C-13.96535404 106.69688936 -13.96597114 105.90940372 -13.96660694 105.09805489 C-13.97005866 99.55232822 -13.96423536 94.00665577 -13.95481873 88.4609375 C-13.94359294 81.70125832 -13.94665087 74.94176491 -13.9679417 68.18210697 C-13.97844447 64.73408346 -13.98258752 61.28636952 -13.96934509 57.83834839 C-13.95843176 54.0989537 -13.97210429 50.36043262 -13.99206543 46.62109375 C-13.9786811 44.98962402 -13.9786811 44.98962402 -13.96502638 43.32519531 C-14.03078012 36.98449054 -14.76267268 33.14691935 -18.5 27.96875 C-21.73285833 24.89753458 -25.07116257 24.03001249 -29.4375 23.40625 C-37.06733947 23.82328584 -43.51785452 30.4154991 -49.125 35.09375 Z M-209.55078125 117.72265625 C-216.18218233 125.36405027 -216.65119929 134.56345332 -216.64526367 144.31567383 C-216.64862228 145.11993301 -216.6519809 145.9241922 -216.65544128 146.75282288 C-216.6648876 149.39382501 -216.66689122 152.03476331 -216.66796875 154.67578125 C-216.67118578 156.52512131 -216.67455018 158.37446112 -216.67805481 160.22380066 C-216.68403033 164.09460032 -216.68589634 167.9653777 -216.68530273 171.83618164 C-216.68520122 176.77531428 -216.69884984 181.71430284 -216.71607494 186.65340137 C-216.72724018 190.47202703 -216.72922055 194.29061835 -216.72869301 198.10925865 C-216.72986645 199.9291604 -216.73425216 201.74906322 -216.74202538 203.56894875 C-217.26615686 222.55023272 -217.26615686 222.55023272 -208.77734375 238.84765625 C-196.08226211 250.93700835 -180.93843453 246.96875 -163.5 246.96875 C-163.5 201.42875 -163.5 155.88875 -163.5 108.96875 C-189.25908663 107.06380203 -189.25908663 107.06380203 -209.55078125 117.72265625 Z " fill="#000000" transform="translate(296.5,78.03125)"/>
<path d="M0 0 C23.68257511 16.12430646 38.05291622 51.53731644 43.515625 78.67382812 C51.82776561 124.50604788 43.69514128 169.01225815 18.19091797 208.19189453 C4.20220065 228.37117783 4.20220065 228.37117783 -5.1875 230.8125 C-11.43904478 231.1149941 -16.13349742 229.55961911 -21 225.625 C-24.42494842 221.26597474 -25.55677012 217.72584686 -25.3671875 212.1015625 C-24.53115822 206.3351041 -21.42269823 202.25712359 -17.5 198.125 C-4.4224373 183.94950759 4.16551182 164.49145418 8.9375 146 C9.2365625 144.93136719 9.535625 143.86273438 9.84375 142.76171875 C17.7219476 109.38879837 10.51447379 73.0255774 -7.0625 44 C-10.18200254 39.32672225 -13.55479828 34.89573497 -17.05078125 30.5 C-17.67339844 29.71625 -18.29601562 28.9325 -18.9375 28.125 C-19.49179687 27.44695312 -20.04609375 26.76890625 -20.6171875 26.0703125 C-23.79898792 21.51259839 -24.6234869 17.51637114 -24.0625 12 C-22.23572864 6.72704914 -19.83729176 3.06076395 -15.0625 0 C-9.99914081 -1.6877864 -5.07454667 -1.65699483 0 0 Z " fill="#000000" transform="translate(418.0625,142)"/>
<path d="M0 0 C18.2293474 12.79932902 26.71800979 38.00021302 30.46875 59.04296875 C30.74502014 61.395102 30.87842217 63.69544808 30.9375 66.0625 C30.98777344 66.99191406 31.03804688 67.92132813 31.08984375 68.87890625 C31.93128779 95.77145765 22.36842106 122.38466673 3.9375 142.0625 C-1.2821258 146.96953436 -5.3171136 148.48934662 -12.421875 148.40625 C-16.78837274 147.83783018 -19.82504116 145.98164754 -23.0625 143.0625 C-26.90868429 138.01438313 -26.86096729 132.16572697 -26.0625 126.0625 C-24.50855744 122.88986728 -22.55358231 120.63241114 -20.26171875 117.97265625 C-8.21628249 103.54152193 -1.65885057 85.97348595 -3.0625 67.0625 C-5.39956659 50.33499186 -11.50709156 38.00092176 -21.7734375 24.875 C-24.89705764 20.48300077 -24.64214118 15.22291662 -24.0625 10.0625 C-19.11273494 0.16296987 -10.35701373 -3.17051441 0 0 Z " fill="#000000" transform="translate(370.0625,183.9375)"/>
</svg>
